<svg xmlns="http://www.w3.org/2000/svg">
  <symbol id="bundle" viewBox="0 0 39.043 37.416">
    <defs>
      <clipPath id="a">
        <path d="M0 0h39.043v37.416H0z"/>
      </clipPath>
    </defs>
    <g clip-path="url(#a)">
      <path d="M34.162 17.895l3.254 1.627-11.388 11.387-6.507-6.507 1.627-3.254 4.88 4.88z"/>
    </g>
    <rect width="13.014" height="11.387" rx="1.516" transform="translate(3.254 3.254)"/>
    <rect width="11.388" height="11.387" rx="1.515" transform="translate(21.148 3.254)"/>
    <rect width="13.014" height="11.387" rx="1.539" transform="translate(3.254 19.521)"/>
  </symbol>
  <symbol id="card" viewBox="0 0 26.219 32.753">
    <path d="M20.78 32.753H5.44A5.446 5.446 0 010 27.313V5.44A5.446 5.446 0 015.44 0h15.34a5.446 5.446 0 015.44 5.44v21.873a5.446 5.446 0 01-5.44 5.44zM5.44 3.445a2 2 0 00-2 2v21.868a2 2 0 002 2h15.34a2 2 0 002-2V5.44a2 2 0 00-2-2z"/>
    <path d="M17.963 26.257H8.629a1.76 1.76 0 010-3.519h9.334a1.76 1.76 0 110 3.519z"/>
  </symbol>
  <symbol id="details" viewBox="0 0 38.839 20.563">
    <path d="M33.624 0H5.214A5.22 5.22 0 000 5.214v10.134a5.22 5.22 0 005.214 5.215h28.41a5.22 5.22 0 005.214-5.215V5.214A5.22 5.22 0 0033.624 0zM3.302 15.348V5.214a1.915 1.915 0 011.913-1.913h9.677v13.958H5.214a1.915 1.915 0 01-1.912-1.911zm32.235 0a1.915 1.915 0 01-1.913 1.912H18.193V3.302h15.431a1.915 1.915 0 011.913 1.913z"/>
    <path d="M31.096 5.81h-8.461a1.595 1.595 0 000 3.19h8.461a1.595 1.595 0 100-3.19zM28.499 11.225h-5.864a1.595 1.595 0 100 3.189h5.864a1.595 1.595 0 100-3.189z"/>
  </symbol>
  <symbol id="vector" viewBox="0 0 17.143 11.998">
    <path d="M10.284.857h3.659a1.714 1.714 0 110 1.714h-1.834a7.711 7.711 0 014.147 6.212 1.714 1.714 0 11-1.714.034 6 6 0 00-4.259-5.141v.608H6.856v-.608a6 6 0 00-4.254 5.141 1.713 1.713 0 11-1.714-.034 7.712 7.712 0 014.13-6.212H3.202a1.714 1.714 0 110-1.714h3.654V0h3.427z"/>
  </symbol>
  <symbol id="license" viewBox="0 0 14.571 17">
    <path d="M1.988 17h8.166a1.988 1.988 0 001.988-1.988V4.417a1.988 1.988 0 00-1.988-1.988H1.776A1.776 1.776 0 000 4.205v10.807A1.988 1.988 0 001.988 17zm.44-10.752a.783.783 0 01.783-.783H5.9a.783.783 0 01.783.783v.255a.783.783 0 01-.783.783H3.212a.783.783 0 01-.783-.783zm0 3.339a.783.783 0 01.783-.783H8.93a.783.783 0 01.783.783v.255a.783.783 0 01-.783.783H3.212a.783.783 0 01-.783-.783zm0 3.339a.783.783 0 01.783-.783h4.505a.783.783 0 01.783.783v.255a.783.783 0 01-.783.783H3.212a.783.783 0 01-.783-.783z"/>
    <path d="M10.629 0h-7.55a.65.65 0 00-.65.65.565.565 0 00.565.565h7.328a3.036 3.036 0 013.036 3.035v9.714a.607.607 0 001.214 0V3.946A3.946 3.946 0 0010.629 0z"/>
  </symbol>
  <symbol id="editable" viewBox="0 0 16.995 16.974">
    <g transform="translate(-3.995 -4.021)">
      <rect width="2.611" height="3.033" rx="1.306" transform="rotate(-45 17.383 -13.192)"/>
      <path d="M6.586 20.554l8.749-8.751a.528.528 0 000-.746l-1.4-1.4a.528.528 0 00-.746 0l-8.75 8.746a1.516 1.516 0 102.144 2.144zM11.936 5.1a.476.476 0 01-.212-.212l-.3-.607a.476.476 0 00-.852 0l-.3.607a.476.476 0 01-.212.212l-.607.3a.476.476 0 000 .852l.607.3a.476.476 0 01.212.212l.3.607a.476.476 0 00.852 0l.3-.607a.476.476 0 01.212-.212l.607-.3a.476.476 0 000-.852zM20.961 4.693a.476.476 0 00-.607-.607l-.646.23a.476.476 0 01-.3 0l-.649-.215a.476.476 0 00-.607.607l.215.649a.476.476 0 010 .3l-.215.649a.476.476 0 00.607.607l.649-.215a.476.476 0 01.3 0l.649.215a.476.476 0 00.607-.607l-.215-.649a.476.476 0 010-.3zM18.805 11.901l-.252.5a.4.4 0 01-.179.179l-.509.255a.4.4 0 000 .71l.509.255a.4.4 0 01.179.179l.255.509a.4.4 0 00.71 0l.249-.512a.4.4 0 01.179-.179l.509-.255a.4.4 0 000-.71l-.509-.255a.4.4 0 01-.18-.176l-.252-.5a.4.4 0 00-.71 0z"/>
      <circle cx=".607" cy=".607" transform="translate(14.307 4.621)" r=".607"/>
      <circle cx=".607" cy=".607" transform="translate(19.159 8.866)" r=".607"/>
    </g>
  </symbol>
  <symbol id="character" viewBox="0 0 14.283 19.995">
    <g transform="translate(-12 -4)">
      <circle cx="1.785" cy="1.785" r="1.785" transform="translate(17.356 4)"/>
      <path d="M16.285 16.855v6.392a.75.75 0 001.493.071l.546-5.713a.821.821 0 011.632 0l.546 5.713a.75.75 0 001.5-.071v-11.53a1.521 1.521 0 011.271-1.5l2.367-.393a.775.775 0 00.646-.761.775.775 0 00-.777-.778H12.775A.775.775 0 0012 9.06a.775.775 0 00.646.764l2.367.393a1.521 1.521 0 011.271 1.5z"/>
    </g>
  </symbol>
  <symbol id="arrow" viewBox="0 0 21 18.828">
    <g transform="translate(1.424 1.618)">
      <path d="M-.424-.213h18" transform="translate(0 8.01)" fill="none" stroke-linecap="round" stroke-width="2"/>
      <path d="M822.953,706.1l8,8-8,8" transform="translate(-812.377 -706.308)" fill="none" stroke-linecap="round" stroke-linejoin="round" stroke-width="2"/>
    </g>
  </symbol>
  <symbol id="transform" viewBox="0 0 64 64">
    <path d="M0 0h9.987v9.987H0zm63.916 0h-9.987v9.987h9.987zM39.448 4.994h-4.993v4.993h4.993zm9.737 0h-4.993v4.993h4.994zM24.718 9.987h4.993V4.994h-4.993zm-9.737 0h4.993V4.994H14.98zm43.942 14.731h-4.994v4.993h4.994zm0-9.737h-4.994v4.993h4.994zM0 63.916h9.987v-9.987H0zm4.994-24.468h4.993v-4.993H4.994zm0 9.737h4.993v-4.993H4.994zm0-19.475h4.993v-4.992H4.994zm0-9.737h4.993V14.98H4.994zm19.724 38.95h4.993v-4.994h-4.993zm-9.737 0h4.993v-4.994H14.98zM50.1 47.07l7 14.647-4.5 2.152-6.986-14.616-9.661 9.073V23.185L64 45.667zm-9.158-.284l4.546-4.269 5.856-.591-10.4-8.338zm0 0"/>
  </symbol>
  <symbol id="testing" viewBox="0 0 64 74">
    <path d="M8.574 67.446a2.861 2.861 0 01-2.858-2.858V14.29a2.861 2.861 0 012.858-2.858h4.715V22.72h28.579V11.432h4.573A2.861 2.861 0 0149.3 14.29v31.749l5.716-6.364V14.29a8.584 8.584 0 00-8.574-8.574H35.663a8.575 8.575 0 00-16.168 0H8.574A8.584 8.584 0 000 14.29v50.3a8.583 8.583 0 008.574 8.574h23.25l-6-5.716zm16.147-56.014V8.574a2.858 2.858 0 115.716 0v2.858h5.716V17H19.005v-5.568zm18.862 22.72h-20.72v-5.716h20.72zm-26.436-5.716v5.716h-5.715v-5.716zm5.859 17.148v-5.716h20.577v5.716zm-5.716 0h-5.858v-5.716h5.858zM11.432 51.3h5.716v5.716h-5.716zM64 46.779L40.216 73.26 24.751 58.539l3.941-4.14L39.9 65.063l19.853-22.1zm0 0"/>
  </symbol>
  <symbol id="planning" viewBox="0 0 64 64">
    <path d="M56.5 5h-3V0h-5v5h-33V0h-5v5h-3A7.508 7.508 0 000 12.5v44A7.508 7.508 0 007.5 64h17v-5h-17A2.5 2.5 0 015 56.5v-33h54v10.125h5V12.5A7.508 7.508 0 0056.5 5zM5 18.5v-6A2.5 2.5 0 017.5 10h3v5h5v-5h33v5h5v-5h3a2.5 2.5 0 012.5 2.5v6zm9.5 15.25h-5v-5h5zm5-5h5v5h-5zm15 5h-5v-5h5zm10 0h-5v-5h5zm10-5v5h-5v-5zm-40 15h-5v-5h5zm5-5h5v5h-5zm10 0h5v5h-5zm10 0h5v5h-5zm-30 10h5v5h-5zm10 0h5v5h-5zm30-10H64v14.875h-5v-6.063L46.575 59.957l-5.832-5.335-8.935 9.355-3.616-3.453 12.315-12.895 5.918 5.414 9.316-9.293H49.5zm0 0"/>
  </symbol>
  <symbol id="setting" viewBox="0 0 64 64">
    <path d="M5.625 24H0v-5h5.625zM2.3 33.875l2.249 4.466 5.305-2.671-2.246-4.47zM9.732 6.949L4.552 4.34 2.3 8.806l5.18 2.608zM61.7 8.806L59.448 4.34l-5.18 2.609 2.249 4.465zM32.125 15a6.382 6.382 0 016.375 6.375h5A11.388 11.388 0 0032.125 10zm26.25 4v5H64v-5zm1.142 27.625H64v5h-4.483a9.943 9.943 0 01-1.073 2.575l3.174 3.174-3.536 3.536-3.174-3.174a9.944 9.944 0 01-2.533 1.06v4.454h-5v-4.432a9.938 9.938 0 01-2.618-1.082l-3.174 3.174-3.536-3.536 3.175-3.174a9.925 9.925 0 01-1.072-2.576h-4.525v-5h4.524a9.918 9.918 0 011.072-2.576l-3.174-3.174 3.536-3.536 3.174 3.174a9.937 9.937 0 012.618-1.082V35h5v4.454a9.944 9.944 0 012.533 1.06l3.174-3.174 3.536 3.536-3.174 3.174a9.943 9.943 0 011.073 2.575zm-9.684 7.5a5 5 0 10-2.883-9.081l-1.2 1.2a5 5 0 004.081 7.884zM33.42 59h-3.809a2.5 2.5 0 01-2.5-2.5v-4.875h3.639v-5h-3.929c-.81-4.445-3.188-7.573-5.5-10.618-2.981-3.923-5.8-7.63-5.82-14.571a16.5 16.5 0 0133 0 19.089 19.089 0 01-2.09 9 19.256 19.256 0 015.558-.2A24.665 24.665 0 0053.5 21.5v-.143a21.5 21.5 0 00-43 0v.143c.04 8.586 3.65 13.337 6.838 17.533 2.666 3.509 4.786 6.28 4.786 10.894V56.5a7.5 7.5 0 007.487 7.5h4.778a7.451 7.451 0 002.718-.512A19.214 19.214 0 0133.42 59zm0 0"/>
  </symbol>
  <symbol id="contract" viewBox="0 0 64 64">
    <path d="M19.789 20.429h29.182v5.01H19.789zm0 15.015h29.182v-5.01H19.789zm0 10.02h10.4v-5.01h-10.4zM64 15.036h-5.024v41.575a7.523 7.523 0 01-7.515 7.515H7.264v-.006A7.522 7.522 0 010 56.611V49.1h9.894V7.515A7.523 7.523 0 0117.284 0h39.2A7.523 7.523 0 0164 7.515zM7.452 59.115a2.508 2.508 0 002.442-2.5v-2.5H5.01v2.5a2.508 2.508 0 002.442 2.5zm46.515-44.079H19.789V7.515a2.443 2.443 0 10-4.885 0v49.1a7.479 7.479 0 01-.43 2.5h36.988a2.508 2.508 0 002.5-2.5V15.036zm5.023-7.521a2.508 2.508 0 00-2.5-2.5H24.369a7.482 7.482 0 01.429 2.5v2.512H58.99zM48.971 47.969a7.515 7.515 0 11-7.515-7.515 7.523 7.523 0 017.515 7.515zm-5.01 0a2.5 2.5 0 10-2.5 2.5 2.508 2.508 0 002.5-2.5z"/>
  </symbol>
  <symbol id="meeting-room" viewBox="0 0 64 64">
    <path d="M56.5 15A7.5 7.5 0 1049 7.5a7.508 7.508 0 007.5 7.5zm0-10A2.5 2.5 0 1154 7.5 2.5 2.5 0 0156.5 5zm-49 10A7.5 7.5 0 100 7.5 7.508 7.508 0 007.5 15zm0-10A2.5 2.5 0 115 7.5 2.5 2.5 0 017.5 5zm49.039 12.375H56.5c-5.175 0-7.137 3.768-8.373 7.456-.42 1.254-1.333 4-1.932 5.794H43.25v-5.75a7.508 7.508 0 00-7.5-7.5h-7.5a7.508 7.508 0 00-7.5 7.5v5.75H17.8c-.6-1.8-1.512-4.54-1.932-5.794-1.237-3.688-3.2-7.456-8.373-7.456H7.46a7.507 7.507 0 00-7.46 7.5V38.5a7.511 7.511 0 005 7.07v.055c.064 0 .127 0 .191.01a7.445 7.445 0 00.855.223A2.5 2.5 0 017.5 48.125V64h5V48.125A7.471 7.471 0 0012.191 46h2.934a2.5 2.5 0 012.5 2.5V64h5V48.5a7.508 7.508 0 00-7.5-7.5H7.5c-.064 0-.127 0-.191-.01a7.444 7.444 0 00-.855-.223A2.5 2.5 0 015 38.5V24.875a2.5 2.5 0 012.478-2.5c1.13 0 2.293-.008 3.651 4.044.649 1.937 2.48 7.439 2.5 7.495l.569 1.711H49.8l.569-1.711c.019-.055 1.849-5.558 2.5-7.495 1.358-4.052 2.521-4.047 3.651-4.044a2.5 2.5 0 012.48 2.5V38.5a2.5 2.5 0 01-1.454 2.268 7.445 7.445 0 00-.855.223c-.063 0-.126.01-.191.01H49a7.508 7.508 0 00-7.5 7.5V64h5V48.5A2.5 2.5 0 0149 46h2.809a7.471 7.471 0 00-.309 2.125V64h5V48.125a2.5 2.5 0 011.454-2.268 7.445 7.445 0 00.855-.223c.063 0 .126-.01.191-.01v-.054a7.511 7.511 0 005-7.07V24.875a7.507 7.507 0 00-7.461-7.5zm-30.789 7.5a2.5 2.5 0 012.5-2.5h7.5a2.5 2.5 0 012.5 2.5v5.75h-12.5zM32 15a7.5 7.5 0 10-7.5-7.5A7.508 7.508 0 0032 15zm0-10a2.5 2.5 0 11-2.5 2.5A2.5 2.5 0 0132 5zm0 0"/>
  </symbol>
  <symbol id="elements" viewBox="0 0 27.59 28.21">
    <g transform="translate(-329.446 -367.355)">
      <rect width="11.103" height="11.103" rx=".491" transform="translate(329.447 384.461)"/>
      <path d="M335 369.655a5.554 5.554 0 00-5.554 5.554 5.552 5.552 0 0011.1 0 5.553 5.553 0 00-5.546-5.554zM354.686 393.598l-4.18-8.385a1.359 1.359 0 00-2.432 0l-4.183 8.385a1.361 1.361 0 001.216 1.967h8.366a1.362 1.362 0 001.213-1.967zM345.26 373.607l1.6 1.6-1.6 1.6a1.646 1.646 0 102.327 2.327l1.6-1.6 1.6 1.6a1.644 1.644 0 002.324-2.325l-1.6-1.6 1.601-1.6a1.646 1.646 0 00-2.328-2.327l-1.6 1.6-1.599-1.6a1.644 1.644 0 10-2.325 2.325z"/>
    </g>
  </symbol>
  <symbol id="update" viewBox="0 0 20.411 20.411">
    <defs>
      <clipPath id="a">
        <path d="M0 0h20.411v20.411H0z" transform="translate(.918 .918)"/>
      </clipPath>
    </defs>
    <g transform="translate(-.918 -.918)" clip-path="url(#a)">
      <path d="M19.411 9.392h-6.243l2.523-2.6a6.482 6.482 0 00-9.1-.092 6.331 6.331 0 000 9.016 6.464 6.464 0 009.1 0 6 6 0 001.879-4.5h1.842a8.6 8.6 0 01-2.431 5.793 8.338 8.338 0 01-11.714 0 8.141 8.141 0 01-.019-11.586 8.276 8.276 0 0111.65 0l2.513-2.588zm-7.827-1.957v3.914l3.223 1.915-.663 1.114-3.941-2.339V7.435z"/>
    </g>
  </symbol>
  <symbol id="cloud" viewBox="0 0 20.207 20.207">
    <path d="M0 0h20.207v20.207H0z" fill="none"/>
    <path d="M16.292 8.453A6.308 6.308 0 004.5 6.768a5.05 5.05 0 00.547 10.07H16a4.2 4.2 0 00.295-8.386zm-7.872 5.86l-2.947-2.945 1.187-1.189 1.76 1.751 4.361-4.352 1.187 1.19z"/>
  </symbol>
  <symbol id="fire" viewBox="0 0 14.807 19.74">
    <path d="M8.792 0a19.891 19.891 0 01.685 4.442 3.212 3.212 0 01-3.156 3.452 3.368 3.368 0 01-3.36-3.452l.028-.333A12.742 12.742 0 000 12.336a7.403 7.403 0 0014.807 0A15.839 15.839 0 008.792 0zM7.135 16.964a2.939 2.939 0 01-2.98-2.906 2.9 2.9 0 012.6-2.887 7.137 7.137 0 004.276-2.388 12.913 12.913 0 01.546 3.739 4.443 4.443 0 01-4.442 4.442z"/>
  </symbol>
  <symbol id="quote" viewBox="0 0 36.748 36.748">
    <path d="M0 0h36.748v36.748H0z" fill="none"/>
    <path d="M30.623 3.062H6.124a3.061 3.061 0 00-3.062 3.062v27.561l6.125-6.123h21.436a3.061 3.061 0 003.062-3.062V6.124a3.061 3.061 0 00-3.062-3.062zm0 21.436H9.187l-3.063 3.064V6.124h24.5z"/>
  </symbol>
  <symbol id="check-right" viewBox="0 0 27.387 27.387">
    <path xmlns="http://www.w3.org/2000/svg" data-name="Path 9749" d="M13.693 0a13.693 13.693 0 1 0 13.694 13.693A13.693 13.693 0 0 0 13.693 0zm6.788 12.446l-7.213 7.214a1.956 1.956 0 0 1-2.768 0l-3.6-3.6a1.956 1.956 0 0 1 .318-3.027 1.99 1.99 0 0 1 2.484.3l.724.724a1.081 1.081 0 0 1 0 1.531.489.489 0 0 0 0 .69.489.489 0 0 0 .69 0l.773-.773 5.79-5.785a1.99 1.99 0 0 1 2.484-.3 1.956 1.956 0 0 1 .318 3.027z"/>
  </symbol>
  <symbol id="add" viewBox="0 0 13.633 13.633">
    <g fill="none" stroke="#fff" stroke-linecap="round" stroke-width="2">
      <path d="M6.564 1v11.633M6.564 1v11.633M12.633 7.069H1"/>
    </g>
  </symbol>
  <symbol id="email" viewBox="0 0 24 24">
    <path d="M20 4H4a2 2 0 00-1.99 2L2 18a2.006 2.006 0 002 2h16a2.006 2.006 0 002-2V6a2.006 2.006 0 00-2-2zm0 4l-8 5-8-5V6l8 5 8-5z"/>
    <path d="M0 0h24v24H0z" fill="none"/>
  </symbol>
  <symbol id="user" viewBox="0 0 24.18 24.18">
    <circle cx="6.045" cy="6.045" r="6.045" transform="translate(6.045)"/>
    <path d="M21.957 16.054a21.372 21.372 0 00-9.866-2.237 21.372 21.372 0 00-9.866 2.237 4.288 4.288 0 00-2.224 3.808 4.318 4.318 0 004.318 4.318h15.544a4.318 4.318 0 004.318-4.318 4.288 4.288 0 00-2.224-3.808z"/>
  </symbol>
  <symbol id="ticket" viewBox="0 0 23.938 13.678">
    <path d="M1.71 13.678h1.71v-.043a.855.855 0 011.71 0v.043h17.1a1.71 1.71 0 001.71-1.71v-1.9a2.1 2.1 0 00-.915-1.782 1.71 1.71 0 010-2.885 2.1 2.1 0 00.915-1.787v-1.9A1.71 1.71 0 0022.227 0H5.13v.043a.855.855 0 01-1.71 0V0H1.71A1.71 1.71 0 00.001 1.71v1.906A2.1 2.1 0 00.915 5.4a1.71 1.71 0 010 2.885 2.1 2.1 0 00-.914 1.781v1.9a1.71 1.71 0 001.71 1.71zm14.5-3.42a.855.855 0 11.6-.249.855.855 0 01-.6.249zm.607-6.553a.855.855 0 010 1.21l-5.1 5.069a.856.856 0 01-1.21-1.21l5.094-5.085a.855.855 0 011.21 0zm-5.7-.286a.855.855 0 11-.855.855.855.855 0 01.852-.854zm-7.694-.043a.855.855 0 011.71 0v.085a.855.855 0 01-1.71 0zm0 3.42a.855.855 0 111.71 0v.085a.855.855 0 01-1.71 0zm0 3.42a.855.855 0 011.71 0v.084a.855.855 0 01-1.71 0z"/>
  </symbol>
  <symbol id="arrow-down-head" viewBox="0 0 24 24">
    <path d="M8.71 11.71l2.59 2.59c.39.39 1.02.39 1.41 0l2.59-2.59c.63-.63.18-1.71-.71-1.71H9.41c-.89 0-1.33 1.08-.7 1.71z" fill="#626262"/>
  </symbol>
  <symbol id="new-tap" viewBox="0 0 21.889 21.889">
    <path d="M0,0H21.889V21.889H0Z" fill="none"/>
    <path d="M16.985,16.985H4.748V4.748h6.118V3H4.748A1.748,1.748,0,0,0,3,4.748V16.985a1.748,1.748,0,0,0,1.748,1.748H16.985a1.753,1.753,0,0,0,1.748-1.748V10.866H16.985ZM12.615,3V4.748h3.138L7.16,13.34l1.232,1.232,8.592-8.592V9.118h1.748V3Z" transform="translate(0.078 0.078)" fill="#28a745"/>
  </symbol>
  <symbol id="date" viewBox="0 0 27 30">
    <path d="M887.4,27h-18a1.613,1.613,0,0,1-1.5-1.5v-15h21v15A1.5,1.5,0,0,1,887.4,27Zm-3-25.5V3h-12V1.5a1.5,1.5,0,0,0-3,0V3h-1.5a3.009,3.009,0,0,0-3,3V27a3.009,3.009,0,0,0,3,3h21a3.009,3.009,0,0,0,3-3V6a3.009,3.009,0,0,0-3-3h-1.5V1.5a1.5,1.5,0,0,0-3,0Zm0,15h-4.5a1.613,1.613,0,0,0-1.5,1.5v4.5a1.613,1.613,0,0,0,1.5,1.5h4.5a1.613,1.613,0,0,0,1.5-1.5V18A1.5,1.5,0,0,0,884.4,16.5Z" transform="translate(-864.9)"/>
  </symbol>
  <symbol id="upload" viewBox="0 0 65.143 76">
    <path d="M55.369,25.108h2.456a1.629,1.629,0,0,0,1.154-2.8L42.842,6.176A1.629,1.629,0,0,0,40.06,7.33V9.786A15.323,15.323,0,0,0,55.369,25.108Z" transform="translate(3.382 -3.394)" fill="#cecece"/>
    <path d="M66.8,31.143h0A20.75,20.75,0,0,1,46.064,10.392h0A6.393,6.393,0,0,0,39.671,4h-16.3A15.323,15.323,0,0,0,8.05,19.322h0V64.678A15.323,15.323,0,0,0,23.372,80H57.884A15.323,15.323,0,0,0,73.193,64.678V37.535A6.393,6.393,0,0,0,66.8,31.143ZM48.7,64.8a1.628,1.628,0,0,1-1.629,1.629H34.039A1.628,1.628,0,0,1,32.411,64.8h0V62.629A1.628,1.628,0,0,1,34.039,61H47.068A1.628,1.628,0,0,1,48.7,62.629ZM52.9,47.429H50.325A1.628,1.628,0,0,0,48.7,49.057h0v4.886a1.628,1.628,0,0,1-1.629,1.629H34.039a1.628,1.628,0,0,1-1.629-1.629h0V49.057a1.628,1.628,0,0,0-1.629-1.629H28.2a1.628,1.628,0,0,1-1.221-2.714l12.35-12.35a1.629,1.629,0,0,1,2.3,0l0,0,12.486,12.35A1.629,1.629,0,0,1,52.9,47.429Z" transform="translate(-8.05 -4)" fill="#cecece"/>
  </symbol>
  <symbol id="flash" viewBox="0 0 28.125 35.841">
    <circle cx="14.063" cy="14.063" r="14.063" transform="translate(0 3.928)"/>
    <path d="M157.906,64,143,84.907h8.942l-2.753,14.934,14.906-20.907h-8.942L157.906,64Z" transform="translate(-139.484 -64)" fill="#fff"/>
  </symbol>
  <symbol id="chat-bubble" viewBox="0 0 29.694 29.694">
    <path d="M26.725 0H2.969A2.969 2.969 0 000 2.969v26.725l5.939-5.939h20.786a2.969 2.969 0 002.969-2.969V2.969A2.969 2.969 0 0026.725 0z" fill="#fff"/>
  </symbol>
  <symbol id="right" viewBox="0 0 14.83 24">
    <path d="M0 21.17L9.17 12 0 2.83 2.83 0l12 12-12 12z" fill="#fff"/>
  </symbol>
  <symbol id="download" viewBox="0 0 24 24">
    <path data-name="Path 9761" d="M19 9h-4V3H9v6H5l7 7zM5 18v2h14v-2z" fill="#495057"/>
    <path data-name="Path 9762" d="M0 0h24v24H0z" fill="none"/>
  </symbol>
  <symbol id="search" viewBox="0 0 24 24">
    <path id="Path_402" data-name="Path 402" d="M925.156-1399.907h-1.09l-.379-.376a8.877,8.877,0,0,0,2.152-5.8,8.919,8.919,0,0,0-8.919-8.919,8.919,8.919,0,0,0-8.919,8.919,8.919,8.919,0,0,0,8.919,8.919,8.879,8.879,0,0,0,5.8-2.149l.379.376v1.087l6.858,6.849,2.046-2.046-6.845-6.861Zm-8.236,0a6.174,6.174,0,0,1-6.175-6.175,6.175,6.175,0,0,1,6.175-6.175,6.175,6.175,0,0,1,6.175,6.175,6.174,6.174,0,0,1-6.175,6.175Z" transform="translate(-908 1415)" fill="#444" fill-rule="evenodd"/>
  </symbol>
  <symbol id="dribble" viewBox="0 0 64 64">
    <path d="M34.6 21.4a1.6 1.6 0 002.2.7 28.2 28.2 0 009.9-6.6 1.9 1.9 0 00-.2-2.7A24.5 24.5 0 0032 8l-2.8.2A1.8 1.8 0 0028 11a118.4 118.4 0 016.6 10.4zM38 28l.8 1.8a1.7 1.7 0 001.8 1.1 58.5 58.5 0 0113.3.5 1.7 1.7 0 002-1.9A24.2 24.2 0 0052 18.6a1.9 1.9 0 00-2.8-.2 33.7 33.7 0 01-10.4 7.2A1.8 1.8 0 0038 28zM10.8 27.1a95.7 95.7 0 0017.5-2.3 1.9 1.9 0 001.2-2.7c-2.8-4.7-5.5-8.6-6.9-10.5a1.8 1.8 0 00-2.3-.6A24.6 24.6 0 009 24.8a1.8 1.8 0 001.8 2.3zM34.5 36.6a35.8 35.8 0 00-16.5 13 1.9 1.9 0 00.6 2.5A24.4 24.4 0 0032 56.2a23.6 23.6 0 008-1.4 1.7 1.7 0 001.1-2 94.1 94.1 0 00-4.2-15.1 1.8 1.8 0 00-2.4-1.1zM14.9 46.9C17 44 23.3 36.3 32.8 32.6a1.8 1.8 0 001-2.4c-.2-.3-.3-.7-.5-1a1.8 1.8 0 00-2.1-.9 87.6 87.6 0 01-21.4 3A1.8 1.8 0 008 33.2a25.8 25.8 0 005.2 13.7 1.2 1.2 0 001.7 0zM47.8 50.2a22.9 22.9 0 007.6-12.6 1.6 1.6 0 00-1.3-2.1 33.5 33.5 0 00-11.1-.9 1.8 1.8 0 00-1.5 2.3 107.9 107.9 0 013.4 12.3 1.8 1.8 0 002.9 1zM17.2 51.1c-.1-.1-.2-.1-.2-.2z"/>
  </symbol>
  <symbol id="facebook" viewBox="0 0 64 64">
    <path d="M20.1 36h3.4a.6.6 0 01.6.6V58a2 2 0 002 2h7.8a2 2 0 002.1-2V36.6a.6.6 0 01.6-.6h5.6a2 2 0 002-1.7l1.3-7.9a2.1 2.1 0 00-2-2.4h-6.6a.9.9 0 01-.9-.9v-5a1.8 1.8 0 012-2h5.9a2 2 0 002-2.1V6.2a2.1 2.1 0 00-2-2.1h-7.1c-13 0-12.7 10.5-12.7 12.1v7.3a.6.6 0 01-.6.5h-3.4a2.1 2.1 0 00-2 2.1v7.8a2 2 0 002 2.1z"/>
  </symbol>
  <symbol id="instagram" viewBox="0 0 64 64">
    <path d="M20.7 56h22.6A12.8 12.8 0 0056 43.1V20.9A12.8 12.8 0 0043.3 8H20.7A12.8 12.8 0 008 20.9v22.2A12.8 12.8 0 0020.7 56zM46 16a3 3 0 11-2.9 3 2.9 2.9 0 012.9-3zm-14 4a12 12 0 11-11.8 12A11.8 11.8 0 0132 20z"/>
  </symbol>
  <symbol id="pinterset" viewBox="0 0 28 28">
    <path d="M5.193 24.883a2.14 2.14 0 003.41-1.215v-.06c.215-.895 1.21-5.12 1.62-6.87a2.71 2.71 0 00-.045-1.37 5.85 5.85 0 01-.185-1.6c0-2.075 1.2-3.625 2.7-3.625a1.874 1.874 0 011.89 2.1c0 1.28-.815 3.195-1.235 4.965a2.165 2.165 0 002.21 2.695c2.63 0 4.435-3.4 4.435-7.435 0-3.065-2.065-5.365-5.825-5.365a6.626 6.626 0 00-6.89 6.7 4.04 4.04 0 00.92 2.745.68.68 0 01.2.78c-.065.255-.22.88-.285 1.125a.5.5 0 01-.7.35c-1.96-.8-2.87-2.94-2.87-5.35 0-4 3.355-8.745 10-8.745 5.345 0 8.865 3.87 8.865 8 0 5.5-3.05 9.595-7.555 9.595a4.5 4.5 0 01-2.59-.8.775.775 0 00-1.19.455c-.245.96-.54 2.125-.635 2.475-.065.23-.14.455-.225.68a2.125 2.125 0 001.85 2.86 14.209 14.209 0 003.16-.145 14 14 0 10-11.03-2.94z"/>
  </symbol>
  <symbol id="twitter" viewBox="0 0 64 64">
    <path d="M11.4 26.6a10.9 10.9 0 01-2.6-.4 1.6 1.6 0 00-2.1 2 11.7 11.7 0 008.8 8.6 10.3 10.3 0 01-3 .4 1.4 1.4 0 00-1.2 2 11.3 11.3 0 009.7 6h1a2 2 0 010 4 38.7 38.7 0 01-4.5-.5 5.7 5.7 0 00-2.9.1 19.4 19.4 0 01-5.4 1.3A1.3 1.3 0 008 51.4a1.4 1.4 0 00.8 1.3 32.2 32.2 0 0012.8 2.7c21.2 0 32.7-18 32.7-33.5a3.2 3.2 0 011.1-2.4 25.7 25.7 0 003.3-3.3.7.7 0 00-.8-1 21.1 21.1 0 01-3.6.9.3.3 0 01-.2-.4 10.8 10.8 0 003.6-4.3.6.6 0 00-.8-.8L53.4 12a3.9 3.9 0 01-3.6-.7 10.9 10.9 0 00-7-2.5 11.5 11.5 0 00-11.1 8.8 1.4 1.4 0 001.4 1.7 26 26 0 004.4-.6 2.2 2.2 0 012.4 1.2 2 2 0 01-1.3 2.7 24.9 24.9 0 01-9.7.4A32.8 32.8 0 019.3 12.5a1.4 1.4 0 00-2.3.4 12.3 12.3 0 00-.6 3.9 11.9 11.9 0 005 9.8z"/>
  </symbol>
  <symbol id="ps" viewBox="0 0 113.745 116.3">
    <g fill="#fff">
      <path d="M.41 70.52h44.961a.407.407 0 01.407.407v44.961a.407.407 0 01-.407.407H.41a.407.407 0 01-.407-.407V70.927a.407.407 0 01.407-.407zM22.897 9.481a22.9 22.9 0 00-22.9 22.9 22.889 22.889 0 0045.777 0 22.893 22.893 0 00-22.877-22.9zM104.057 108.189L86.808 73.621a5.6 5.6 0 00-10.027 0l-17.245 34.568a5.61 5.61 0 005.014 8.111h34.488a5.616 5.616 0 005.019-8.111zM65.196 25.776l6.594 6.594-6.593 6.593a6.786 6.786 0 109.596 9.596l6.593-6.593 6.594 6.594a6.778 6.778 0 009.586-9.585l-6.594-6.594 6.593-6.593a6.786 6.786 0 00-9.596-9.596l-6.594 6.593-6.594-6.593a6.778 6.778 0 10-9.585 9.585z"/>
    </g>
  </symbol>
  <symbol id="scene" viewBox="0 0 28.693 29.773">
    <path d="M.038 29.773h27.916a.739.739 0 00.739-.739V16.287a.74.74 0 00-.217-.522l-4.034-4.034a.739.739 0 00-1.045 0l-5.36 5.36a.739.739 0 01-1.045 0l-1.632-1.632a.739.739 0 00-1.045 0L.038 29.735z"/>
    <circle cx="6.48" cy="6.48" r="6.48"/>
  </symbol>
</svg>